#!OML:ASF H:\BreakDance\Project 1\Capture day 1\Session 1\Male.ASF
:FULLY-SPECIFIED
:DEGREES
480
root 22.941 15.4177 -6.99455 10.8386 -44.0702 -2.09981
lowerback -3.42195 -3.45638 -7.10409
upperback 1.38885 -4.27522 0.104331
thorax 3.89533 -2.29906 3.77281
lowerneck 1.26872 -5.67683 -2.66263
upperneck -11.5281 -7.04756 9.08497
head -3.55516 -3.82607 3.76339
rclavicle 2.04748e-014 -7.95139e-016
rhumerus -38.1016 9.77239 -89.5926
rradius 52.3953
rwrist 9.802
rhand -36.9628 -18.5361
rfingers 7.12502
rthumb -10.0387 -48.2767
lclavicle 2.04748e-014 -7.95139e-016
lhumerus -40.4297 -37.5027 86.8089
lradius 71.9986
lwrist -6.24829
lhand -39.6276 -38.6765
lfingers 7.12502
lthumb -12.6088 -9.077
rfemur -58.1154 -1.27641 16.1132
rtibia 41.3047
rfoot -7.71321 1.93727
rtoes -16.7318
lfemur 13.3749 7.21178 -26.8327
ltibia 14.386
lfoot -35.1657 7.41564
ltoes -22.0976
481
root 22.7918 15.4228 -6.8894 10.6026 -44.4792 -2.09712
lowerback -3.61307 -3.54413 -6.76675
upperback 1.38648 -4.39361 0.101759
thorax 3.9877 -2.35197 3.56079
lowerneck 1.28807 -5.49474 -2.71434
upperneck -11.4519 -6.81449 8.98903
head -3.54961 -3.70264 3.73287
rclavicle 3.85642e-014 -1.11319e-014
rhumerus -39.7048 8.98999 -89.8726
rradius 53.657
rwrist 7.35668
rhand -36.5359 -19.0252
rfingers 7.12502
rthumb -9.62686 -48.7852
lclavicle 3.85642e-014 -1.11319e-014
lhumerus -40.9726 -37.8867 87.3973
lradius 72.3117
lwrist -6.26281
lhand -39.0882 -38.5397
lfingers 7.12502
lthumb -12.0887 -8.90891
rfemur -58.0619 -0.851304 16.1452
rtibia 40.8772
rfoot -8.19906 1.39111
rtoes -17.9074
lfemur 15.0415 7.5082 -26.5678
ltibia 12.9595
lfoot -33.5981 7.02504
ltoes -22.5229
482
root 22.6361 15.4341 -6.77918 10.3708 -44.8412 -2.12993
lowerback -3.80684 -3.6481 -6.43983
upperback 1.3647 -4.53587 0.125691
thorax 4.06565 -2.41615 3.38002
lowerneck 1.28877 -5.31931 -2.72761
upperneck -11.2985 -6.59809 8.81076
head -3.5157 -3.58358 3.66206
rclavicle -1.88845e-015 1.90833e-014
rhumerus -41.41 8.52515 -90.1919
rradius 54.8366
rwrist 4.9038
rhand -35.9429 -20.0083
rfingers 7.12502
rthumb -9.05474 -49.794
lclavicle -1.88845e-015 1.90833e-014
lhumerus -41.6716 -38.1599 88.1571
lradius 72.5945
lwrist -6.33591
lhand -38.6318 -38.4917
lfingers 7.12502
lthumb -11.6486 -8.83552
rfemur -57.9002 -0.49712 16.2733
rtibia 40.5263
rfoot -8.81939 0.779497
rtoes -18.9596
lfemur 16.6444 7.88768 -26.1714
ltibia 11.7215
lfoot -31.8005 6.37041
ltoes -23.2446
483
root 22.4751 15.4505 -6.6641 10.137 -45.1542 -2.19085
lowerback -4.00066 -3.76705 -6.11648
upperback 1.31814 -4.70054 0.163286
thorax 4.12016 -2.49036 3.21376
lowerneck 1.30131 -5.15269 -2.68424
upperneck -11.0651 -6.40027 8.548
head -3.45857 -3.47103 3.5488
rclavicle -2.77305e-014 3.26007e-014
rhumerus -43.1871 8.30324 -90.5392
rradius 55.8658
rwrist 2.72856
rhand -35.387 -21.3242
rfingers 7.12502
rthumb -8.51824 -51.1324
lclavicle -2.77305e-014 3.26007e-014
lhumerus -42.5509 -38.3423 89.0853
lradius 72.8604
lwrist -6.40832
lhand -38.3222 -38.5721
lfingers 7.12502
lthumb -11.35 -8.89929
rfemur -57.629 -0.347927 16.5929
rtibia 40.2493
rfoot -9.52113 0.216258
rtoes -19.7267
lfemur 18.0685 8.31187 -25.6569
ltibia 10.8877
lfoot -29.8839 5.42385
ltoes -23.9373
484
root 22.3098 15.471 -6.54452 9.90542 -45.4299 -2.29171
lowerback -4.19001 -3.88699 -5.76812
upperback 1.24823 -4.86992 0.193193
thorax 4.14374 -2.56486 3.02605
lowerneck 1.33737 -4.99506 -2.58777
upperneck -10.7448 -6.21679 8.25647
head -3.37652 -3.36528 3.41395
rclavicle -4.53229e-014 6.36111e-015
rhumerus -45.0175 8.20581 -90.9156
rradius 56.7279
rwrist 0.940152
rhand -34.9206 -22.7402
rfingers 7.12502
rthumb -8.0681 -52.5661
lclavicle -4.53229e-014 6.36111e-015
lhumerus -43.614 -38.4743 90.1582
lradius 73.1263
lwrist -6.38976
lhand -38.1519 -38.7583
lfingers 7.12502
lthumb -11.1857 -9.07643
rfemur -57.2507 -0.512972 17.2033
rtibia 40.0387
rfoot -10.2346 -0.182813
rtoes -20.3371
lfemur 19.193 8.74798 -25.0309
ltibia 10.6875
lfoot -27.949 4.22488
ltoes -24.4546
485
root 22.1418 15.4937 -6.42138 9.6759 -45.6845 -2.43377
lowerback -4.36496 -3.99302 -5.37713
upperback 1.16347 -5.02493 0.20088
thorax 4.13464 -2.63 2.79454
lowerneck 1.38548 -4.85186 -2.45055
upperneck -10.3413 -6.05172 7.98094
head -3.2671 -3.26969 3.27552
rclavicle 5.53615e-014 2.22639e-014
rhumerus -46.8803 8.11803 -91.3103
rradius 57.4457
rwrist -0.461204
rhand -34.5418 -24.119
rfingers 7.12502
rthumb -7.70249 -53.9587
lclavicle 5.53615e-014 2.22639e-014
lhumerus -44.8345 -38.5915 91.3466
lradius 73.3985
lwrist -6.20441
lhand -38.0907 -38.9974
lfingers 7.12502
lthumb -11.1268 -9.31237
rfemur -56.7773 -0.915969 18.0452
rtibia 39.8927
rfoot -10.8897 -0.433699
rtoes -20.5273
lfemur 19.9247 9.217 -24.3088
ltibia 11.2603
lfoot -25.9978 2.92186
ltoes -25.1307
486
root 21.972 15.5184 -6.29552 9.44243 -45.9457 -2.59349
lowerback -4.5282 -4.07618 -4.96085
upperback 1.07015 -5.15208 0.182766
thorax 4.10093 -2.68005 2.52634
lowerneck 1.43358 -4.71981 -2.29245
upperneck -9.88361 -5.8993 7.7399
head -3.13789 -3.18169 3.14437
rclavicle 1.19271e-014 -3.65764e-014
rhumerus -48.7522 7.98448 -91.7028
rradius 58.0584
rwrist -1.58631
rhand -34.2463 -25.3399
rfingers 7.12502
rthumb -7.41727 -55.1899
lclavicle 1.19271e-014 -3.65764e-014
lhumerus -46.174 -38.699 92.6242
lradius 73.6727
lwrist -5.81086
lhand -38.1013 -39.2393
lfingers 7.12502
lthumb -11.137 -9.55481
rfemur -56.2361 -1.50441 19.055
rtibia 39.8153
rfoot -11.437 -0.462598
rtoes -19.9567
lfemur 20.2578 9.70441 -23.5281
ltibia 12.5766
lfoot -23.9952 1.43634
ltoes -25.3376
487
root 21.8007 15.5433 -6.16795 9.19639 -46.2437 -2.72765
lowerback -4.70023 -4.13544 -4.57379
upperback 0.972315 -5.24573 0.147507
thorax 4.06425 -2.71426 2.25947
lowerneck 1.46052 -4.59037 -2.1252
upperneck -9.40049 -5.74871 7.52371
head -2.99572 -3.09524 3.01952
rclavicle 5.96354e-016 -2.14687e-014
rhumerus -50.6 7.79047 -92.0585
rradius 58.5925
rwrist -2.55544
rhand -34.0466 -26.2667
rfingers 7.12502
rthumb -7.22453 -56.1234
lclavicle 5.96354e-016 -2.14687e-014
lhumerus -47.5692 -38.7771 93.9696
lradius 73.9133
lwrist -5.21576
lhand -38.1415 -39.4479
lfingers 7.12502
lthumb -11.1757 -9.76555
rfemur -55.6694 -2.22498 20.1598
rtibia 39.8208
rfoot -11.8508 -0.207972
rtoes -18.6456
lfemur 20.226 10.2306 -22.7344
ltibia 14.4928
lfoot -21.8496 -0.15795
ltoes -25.0361
488
root 21.6285 15.5666 -6.04004 8.93618 -46.5981 -2.79748
lowerback -4.88948 -4.18548 -4.27761
upperback 0.867502 -5.32226 0.122682
thorax 4.03723 -2.74268 2.05407
lowerneck 1.41895 -4.45168 -1.96566
upperneck -8.87996 -5.58868 7.28725
head -2.8292 -3.00154 2.88628
rclavicle -1.71949e-014 -4.77083e-015
rhumerus -52.3893 7.57831 -92.3288
rradius 59.0647
rwrist -3.41898
rhand -33.9279 -26.8414
rfingers 7.12502
rthumb -7.11001 -56.702
lclavicle -1.71949e-014 -4.77083e-015
lhumerus -48.9576 -38.7648 95.3659
lradius 74.087
lwrist -4.46965
lhand -38.2015 -39.6139
lfingers 7.12502
lthumb -11.2336 -9.93465
rfemur -55.1122 -2.9886 21.2621
rtibia 39.9196
rfoot -12.1261 0.338481
rtoes -16.6746
lfemur 19.8575 10.8131 -21.9721
ltibia 16.8752
lfoot -19.5 -1.81605
ltoes -24.1466
489
root 21.4564 15.587 -5.91282 8.65597 -47.0087 -2.77042
lowerback -5.08917 -4.24347 -4.09271
upperback 0.755553 -5.40357 0.115489
thorax 4.02059 -2.77657 1.92695
lowerneck 1.276 -4.29359 -1.80704
upperneck -8.32656 -5.40756 6.99361
head -2.6358 -2.89364 2.73045
rclavicle -8.35393e-014 1.59028e-015
rhumerus -54.0871 7.39285 -92.5025
rradius 59.4734
rwrist -4.15401
rhand -33.8792 -27.1078
rfingers 7.12502
rthumb -7.06291 -56.9699
lclavicle -8.35393e-014 1.59028e-015
lhumerus -50.2997 -38.6229 96.7659
lradius 74.1928
lwrist -3.65052
lhand -38.319 -39.7465
lfingers 7.12502
lthumb -11.347 -10.0735
rfemur -54.5754 -3.70669 22.2636
rtibia 40.1177
rfoot -12.274 1.12351
rtoes -14.3587
lfemur 19.1766 11.4323 -21.2865
ltibia 19.6248
lfoot -16.9724 -3.41207
ltoes -22.7664
490
root 21.2853 15.6039 -5.78738 8.34773 -47.4628 -2.63216
lowerback -5.29169 -4.31 -4.012
upperback 0.643833 -5.49007 0.110936
thorax 4.01592 -2.81571 1.85881
lowerneck 1.05911 -4.12351 -1.61008
upperneck -7.79873 -5.21204 6.63194
head -2.44131 -2.77761 2.54566
rclavicle -2.98177e-016 2.38542e-015
rhumerus -55.6702 7.21133 -92.5922
rradius 59.8138
rwrist -4.68531
rhand -33.8809 -27.1812
rfingers 7.12502
rthumb -7.06455 -57.0433
lclavicle -2.98177e-016 2.38542e-015
lhumerus -51.5731 -38.3895 98.1224
lradius 74.2345
lwrist -2.84509
lhand -38.5379 -39.846
lfingers 7.12502
lthumb -11.558 -10.1847
rfemur -54.0413 -4.27882 23.073
rtibia 40.4101
rfoot -12.3243 2.03854
rtoes -12.0932
lfemur 18.2073 12.0616 -20.7006
ltibia 22.6775
lfoot -14.3438 -4.82774
ltoes -21.1413
491
root 21.1156 15.6149 -5.66559 8.01671 -47.9562 -2.40962
lowerback -5.47633 -4.37595 -4.02692
upperback 0.538264 -5.57033 0.104335
thorax 4.01601 -2.85405 1.84254
lowerneck 0.825433 -3.95277 -1.35575
upperneck -7.35444 -5.01363 6.21628
head -2.27464 -2.66219 2.33798
rclavicle 1.03865e-013 -1.11319e-014
rhumerus -57.1367 6.99444 -92.6035
rradius 60.105
rwrist -4.93818
rhand -33.8467 -27.1621
rfingers 7.12502
rthumb -7.03157 -57.0253
lclavicle 1.03865e-013 -1.11319e-014
lhumerus -52.7764 -38.1165 99.413
lradius 74.2193
lwrist -2.12665
lhand -38.8802 -39.9158
lfingers 7.12502
lthumb -11.8882 -10.2733
rfemur -53.4755 -4.57867 23.6327
rtibia 40.7886
rfoot -12.3212 2.94153
rtoes -10.1781
lfemur 16.9936 12.6211 -20.2316
ltibia 25.9801
lfoot -11.7328 -6.01781
ltoes -19.3022
492
root 20.9493 15.6195 -5.54755 7.64049 -48.4612 -2.11719
lowerback -5.59018 -4.44514 -4.09922
upperback 0.446864 -5.65355 0.0856112
thorax 3.99565 -2.89499 1.84971
lowerneck 0.579579 -3.77449 -1.06575
upperneck -7.02819 -4.80093 5.79158
head -2.14617 -2.54314 2.12707
rclavicle 1.00535e-013 -2.38542e-015
rhumerus -58.4775 6.73987 -92.5529
rradius 60.3623
rwrist -4.87845
rhand -33.6872 -27.1164
rfingers 7.12502
rthumb -6.87763 -56.9846
lclavicle 1.00535e-013 -2.38542e-015
lhumerus -53.9017 -37.8202 100.61
lradius 74.1544
lwrist -1.54661
lhand -39.3235 -39.9601
lfingers 7.12502
lthumb -12.3156 -10.3428
rfemur -52.8328 -4.6215 23.9493
rtibia 41.2431
rfoot -12.3119 3.76438
rtoes -8.96101
lfemur 15.6064 13.0353 -19.8829
ltibia 29.4752
lfoot -9.28212 -6.95274
ltoes -17.523
493
root 20.787 15.6158 -5.4337 7.18784 -48.9633 -1.76138
lowerback -5.59288 -4.5215 -4.2192
upperback 0.391332 -5.74723 0.0557023
thorax 3.95463 -2.94232 1.87758
lowerneck 0.27258 -3.58757 -0.793103
upperneck -6.80519 -4.57298 5.41392
head -2.03923 -2.41931 1.93811
rclavicle 6.33129e-014 1.27222e-014
rhumerus -59.6558 6.47533 -92.4558
rradius 60.5875
rwrist -4.54923
rhand -33.3648 -27.0754
rfingers 7.12502
rthumb -6.56637 -56.9536
lclavicle 6.33129e-014 1.27222e-014
lhumerus -54.9001 -37.5074 101.682
lradius 74.0334
lwrist -1.12421
lhand -39.809 -39.9653
lfingers 7.12502
lthumb -12.7837 -10.3767
rfemur -52.0844 -4.41932 24.0373
rtibia 41.7689
rfoot -12.3451 4.42189
rtoes -8.63437
lfemur 14.1127 13.3 -19.6522
ltibia 33.089
lfoot -7.18335 -7.60063
ltoes -16.9703
